<svg width="1440" height="300" viewBox="0 0 1440 300" fill="none" xmlns="http://www.w3.org/2000/svg">
<g clip-path="url(#clip0_10_31)">
<path d="M1440 150L1430 155.021C1420 159.796 1400 170.204 1380 189.98C1360 210 1340 240 1320 255C1300 270 1280 270 1260 230.021C1240 189.796 1220 110.204 1200 114.98C1180 120 1160 210 1140 245.021C1120 279.796 1100 260.204 1080 234.98C1060 210 1040 180 1020 170.021C1000 159.796 980 170.204 960 155.021C940 140.204 920 99.7962 900 105C880 110.204 860 159.796 840 185.021C820 210 800 210 780 210C760 210 740 210 720 215.021C700 219.796 680 230.204 660 219.98C640 210 620 180 600 159.98C580 140.204 560 129.796 540 155.021C520 180 500 240 480 264.98C460 290.204 440 279.796 420 249.98C400 219.796 380 170.204 360 135C340 99.7961 320 80.2043 300 69.9798C280 60.0002 260 60.0002 240 75.0002C220 90.0002 200 120 180 140.021C160 159.796 140 170.204 120 189.98C100 210 80 240 60 234.98C40 230.204 20 189.796 10 170.021L1.12947e-05 150L2.44081e-05 0.000209805L10 0.000210679C20 0.000211553 40 0.000213301 60 0.00021505C80 0.000216798 100 0.000218547 120 0.000220295C140 0.000222044 160 0.000223792 180 0.000225541C200 0.000227289 220 0.000229038 240 0.000230786C260 0.000232534 280 0.000234283 300 0.000236031C320 0.00023778 340 0.000239528 360 0.000241277C380 0.000243025 400 0.000244774 420 0.000246522C440 0.000248271 460 0.000250019 480 0.000251767C500 0.000253516 520 0.000255264 540 0.000257013C560 0.000258761 580 0.00026051 600 0.000262258C620 0.000264007 640 0.000265755 660 0.000267504C680 0.000269252 700 0.000271001 720 0.000272749C740 0.000274497 760 0.000276246 780 0.000277994C800 0.000279743 820 0.000281491 840 0.00028324C860 0.000284988 880 0.000286737 900 0.000288485C920 0.000290234 940 0.000291982 960 0.00029373C980 0.000295479 1000 0.000297227 1020 0.000298976C1040 0.000300724 1060 0.000302473 1080 0.000304221C1100 0.00030597 1120 0.000307718 1140 0.000309467C1160 0.000311215 1180 0.000312963 1200 0.000314712C1220 0.00031646 1240 0.000318209 1260 0.000319957C1280 0.000321706 1300 0.000323454 1320 0.000325203C1340 0.000326951 1360 0.0003287 1380 0.000330448C1400 0.000332196 1420 0.000333945 1430 0.000334819L1440 0.000335693L1440 150Z" fill="url(#paint0_linear_10_31)"/>
</g>
<defs>
<linearGradient id="paint0_linear_10_31" x1="1440" y1="0.000335693" x2="1440" y2="279.196" gradientUnits="userSpaceOnUse">
<stop stop-color="#122A37"/>
<stop offset="1" stop-color="#122A37"/>
</linearGradient>
<clipPath id="clip0_10_31">
<rect width="1440" height="300" fill="white" transform="translate(1440 300) rotate(-180)"/>
</clipPath>
</defs>
</svg>
