<svg width="1440" height="323" viewBox="0 0 1440 323" fill="none" xmlns="http://www.w3.org/2000/svg">
<path d="M1440 174.314L1429.99 151.048C1420.01 128.067 1399.88 81.1094 1380 58.1285C1360.01 34.8631 1339.88 34.863 1320 87.157C1300.01 139.451 1279.87 244.039 1260 249.873C1240.01 255.423 1219.88 162.93 1200 133.617C1180.01 104.588 1159.88 139.451 1140 168.479C1120.01 197.793 1099.88 220.56 1080 220.773C1060.01 220.56 1039.88 197.793 1020 180.148C1000.01 162.93 979.875 150.835 960 168.479C940.013 185.697 919.875 232.655 900 220.773C880.013 209.176 859.875 139.451 840 145.285C820.013 150.835 799.875 232.655 780 226.608C760.013 220.56 739.875 128.067 720 92.9911C700.013 58.3419 679.875 81.1093 660 122.02C640.013 162.93 619.875 220.56 600 209.176C580.013 197.793 559.875 115.972 540 81.3228C520.013 46.2467 499.875 58.3419 480 75.5598C460.013 93.2046 439.875 115.972 420 127.854C400.012 139.451 379.875 139.451 360 139.451C340.012 139.451 319.875 139.451 300 122.02C280.012 104.588 259.875 69.7256 240 104.588C220.012 139.451 199.875 244.039 180 290.499C160.012 337.243 139.875 325.148 120 302.167C100.012 278.902 79.875 244.039 60 203.342C40.0125 162.93 19.875 115.972 10.125 92.9911L1.90487e-05 69.7256L2.43035e-05 0.000250698L10.0125 0.000251713C19.9875 0.000252724 40.125 0.000254767 60 0.000256782C79.9876 0.000258809 100.125 0.000260851 120 0.000262867C139.988 0.000264894 160.125 0.000266936 180 0.000268951C199.988 0.000270978 220.125 0.00027302 240 0.000275036C259.988 0.000277063 280.125 0.000279105 300 0.000281121C319.988 0.000283148 340.125 0.00028519 360 0.000287205C379.988 0.000289232 400.125 0.000291274 420 0.00029329C439.988 0.000295317 460.125 0.000297359 480 0.000299375C499.988 0.000301401 520.125 0.000303444 540 0.000305459C559.988 0.000307486 580.125 0.000309528 600 0.000311544C619.988 0.000313571 640.125 0.000315613 660 0.000317628C679.988 0.000319655 700.125 0.000321697 720 0.000323713C739.988 0.00032574 760.125 0.000327782 780 0.000329798C799.988 0.000331825 820.125 0.000333867 840 0.000335882C859.988 0.000337909 880.125 0.000339951 900 0.000341967C919.988 0.000343994 940.125 0.000346036 960 0.000348052C979.988 0.000350078 1000.13 0.000352121 1020 0.000354136C1039.99 0.000356163 1060.13 0.000358205 1080 0.000360221C1099.99 0.000362248 1120.13 0.00036429 1140 0.000366305C1159.99 0.000368332 1180.13 0.000370374 1200 0.00037239C1219.99 0.000374417 1240.13 0.000376459 1260 0.000378475C1279.99 0.000380502 1300.13 0.000382544 1320 0.000384559C1339.99 0.000386586 1360.13 0.000388628 1380 0.000390644C1399.99 0.000392671 1420.13 0.000394713 1429.88 0.000395702L1440 0.000396729L1440 174.314Z" fill="url(#paint0_linear_13_7)"/>
<defs>
<linearGradient id="paint0_linear_13_7" x1="1443.94" y1="11.6687" x2="1443.94" y2="334.149" gradientUnits="userSpaceOnUse">
<stop stop-color="#F7AB12"/>
<stop offset="1" stop-color="#F7AB12"/>
</linearGradient>
</defs>
</svg>
