<svg width="1440" height="300" viewBox="0 0 1440 300" fill="none" xmlns="http://www.w3.org/2000/svg">
<g clip-path="url(#clip0_13_4)">
<path d="M0 150L26.7 170.02C53.3 189.796 107 230.204 160 249.98C213.3 270 267 270 320 225C373.3 180 427 90 480 84.9796C533.3 80.204 587 159.796 640 185.02C693.3 210 747 180 800 155.02C853.3 129.796 907 110.204 960 110.02C1013.3 110.204 1067 129.796 1120 144.98C1173.3 159.796 1227 170.204 1280 155.02C1333.3 140.204 1387 99.7959 1440 110.02C1493.3 120 1547 180 1600 174.98C1653.3 170.204 1707 99.7959 1760 105C1813.3 110.204 1867 189.796 1920 219.98C1973.3 249.796 2027 230.204 2080 195C2133.3 159.796 2187 110.204 2240 120C2293.3 129.796 2347 200.204 2400 230.02C2453.3 260.204 2507 249.796 2560 234.98C2613.3 219.796 2667 200.204 2720 189.98C2773.3 180 2827 180 2880 180C2933.3 180 2987 180 3040 195C3093.3 210 3147 240 3200 210C3253.3 180 3307 90 3360 50.0204C3413.3 9.79588 3467 20.2041 3520 39.9796C3573.3 60 3627 90 3680 125.02C3733.3 159.796 3787 200.204 3813 219.98L3840 240V300H3813.3C3786.7 300 3733 300 3680 300C3626.7 300 3573 300 3520 300C3466.7 300 3413 300 3360 300C3306.7 300 3253 300 3200 300C3146.7 300 3093 300 3040 300C2986.7 300 2933 300 2880 300C2826.7 300 2773 300 2720 300C2666.7 300 2613 300 2560 300C2506.7 300 2453 300 2400 300C2346.7 300 2293 300 2240 300C2186.7 300 2133 300 2080 300C2026.7 300 1973 300 1920 300C1866.7 300 1813 300 1760 300C1706.7 300 1653 300 1600 300C1546.7 300 1493 300 1440 300C1386.7 300 1333 300 1280 300C1226.7 300 1173 300 1120 300C1066.7 300 1013 300 960 300C906.7 300 853 300 800 300C746.7 300 693 300 640 300C586.7 300 533 300 480 300C426.7 300 373 300 320 300C266.7 300 213 300 160 300C106.7 300 53 300 27 300H0V150Z" fill="url(#paint0_linear_13_4)"/>
</g>
<defs>
<linearGradient id="paint0_linear_13_4" x1="0" y1="300" x2="0" y2="22.4998" gradientUnits="userSpaceOnUse">
<stop stop-color="#F7AB12"/>
<stop offset="1" stop-color="#F7AB12"/>
</linearGradient>
<clipPath id="clip0_13_4">
<rect width="1440" height="300" fill="white"/>
</clipPath>
</defs>
</svg>
