<svg width="1440" height="300" viewBox="0 0 1440 300" fill="none" xmlns="http://www.w3.org/2000/svg">
<path d="M0 150L10 144.98C20 140.204 40 129.796 60 110.02C80 90 100 60 120 45C140 30 160 30 180 69.9796C200 110.204 220 189.796 240 185.02C260 180 280 90 300 54.9796C320 20.2041 340 39.7959 360 65.0204C380 90 400 120 420 129.98C440 140.204 460 129.796 480 144.98C500 159.796 520 200.204 540 195C560 189.796 580 140.204 600 114.98C620 90 640 90 660 90C680 90 700 90 720 84.9796C740 80.2041 760 69.7959 780 80.0204C800 90 820 120 840 140.02C860 159.796 880 170.204 900 144.98C920 120 940 60 960 35.0204C980 9.79593 1000 20.2041 1020 50.0204C1040 80.2041 1060 129.796 1080 165C1100 200.204 1120 219.796 1140 230.02C1160 240 1180 240 1200 225C1220 210 1240 180 1260 159.98C1280 140.204 1300 129.796 1320 110.02C1340 90 1360 60 1380 65.0204C1400 69.7959 1420 110.204 1430 129.98L1440 150V300H1430C1420 300 1400 300 1380 300C1360 300 1340 300 1320 300C1300 300 1280 300 1260 300C1240 300 1220 300 1200 300C1180 300 1160 300 1140 300C1120 300 1100 300 1080 300C1060 300 1040 300 1020 300C1000 300 980 300 960 300C940 300 920 300 900 300C880 300 860 300 840 300C820 300 800 300 780 300C760 300 740 300 720 300C700 300 680 300 660 300C640 300 620 300 600 300C580 300 560 300 540 300C520 300 500 300 480 300C460 300 440 300 420 300C400 300 380 300 360 300C340 300 320 300 300 300C280 300 260 300 240 300C220 300 200 300 180 300C160 300 140 300 120 300C100 300 80 300 60 300C40 300 20 300 10 300H0V150Z" fill="url(#paint0_linear_10_25)"/>
<defs>
<linearGradient id="paint0_linear_10_25" x1="0" y1="300" x2="0" y2="20.8043" gradientUnits="userSpaceOnUse">
<stop stop-color="#122A37"/>
<stop offset="1" stop-color="#122A37"/>
</linearGradient>
</defs>
</svg>
